<svg width="100%" height="100%" viewBox="0 0 30 31" fill="none" xmlns="http://www.w3.org/2000/svg">
<path d="M15 12.8333C13.6739 12.8333 12.4021 12.3065 11.4645 11.3689C10.5268 10.4312 10 9.15941 10 7.83333C10 6.50725 10.5268 5.23548 11.4645 4.29779C12.4021 3.36011 13.6739 2.83333 15 2.83333C16.3261 2.83333 17.5979 3.36011 18.5355 4.29779C19.4732 5.23548 20 6.50725 20 7.83333C20 9.15941 19.4732 10.4312 18.5355 11.3689C17.5979 12.3065 16.3261 12.8333 15 12.8333V12.8333Z" stroke="#E8E8E8" stroke-linecap="round" stroke-linejoin="round"/>
<path d="M3.75 27.8333C3.75 26.356 4.04099 24.8931 4.60635 23.5281C5.17172 22.1632 6.00039 20.923 7.04505 19.8784C8.08971 18.8337 9.3299 18.005 10.6948 17.4397C12.0597 16.8743 13.5226 16.5833 15 16.5833C16.4774 16.5833 17.9403 16.8743 19.3052 17.4397C20.6701 18.005 21.9103 18.8337 22.955 19.8784C23.9996 20.923 24.8283 22.1632 25.3936 23.5281C25.959 24.8931 26.25 26.356 26.25 27.8333" stroke="#E8E8E8" stroke-linecap="round" stroke-linejoin="round"/>
</svg>
