<svg width="100%" height="100%" viewBox="0 0 30 30" fill="none" xmlns="http://www.w3.org/2000/svg">
<path d="M5 13.75H25C25.3315 13.75 25.6495 13.8817 25.8839 14.1161C26.1183 14.3505 26.25 14.6685 26.25 15V26.25C26.25 26.5815 26.1183 26.8995 25.8839 27.1339C25.6495 27.3683 25.3315 27.5 25 27.5H5C4.66848 27.5 4.35054 27.3683 4.11612 27.1339C3.8817 26.8995 3.75 26.5815 3.75 26.25V15C3.75 14.6685 3.8817 14.3505 4.11612 14.1161C4.35054 13.8817 4.66848 13.75 5 13.75Z" stroke="#E8E8E8" stroke-linecap="round" stroke-linejoin="round"/>
<path d="M21.25 13.75V8.75C21.25 7.0924 20.5915 5.50269 19.4194 4.33058C18.2473 3.15848 16.6576 2.5 15 2.5C13.3424 2.5 11.7527 3.15848 10.5806 4.33058C9.40848 5.50269 8.75 7.0924 8.75 8.75V13.75" stroke="#E8E8E8" stroke-linecap="round" stroke-linejoin="round"/>
<path d="M15 18.75V22.5" stroke="#E8E8E8" stroke-linecap="round" stroke-linejoin="round"/>
</svg>
