<svg width="100%" height="100%" viewBox="0 0 30 30" fill="none" xmlns="http://www.w3.org/2000/svg">
<path d="M18.5725 26.9813C20.64 26.364 22.5124 25.2219 24.0075 23.6663C23.5266 23.0958 23.2267 22.3948 23.1464 21.653C23.066 20.9112 23.2088 20.1623 23.5564 19.5021C23.9041 18.8418 24.4407 18.3003 25.0978 17.9468C25.7549 17.5933 26.5025 17.4438 27.245 17.5175C27.6718 15.4353 27.563 13.2787 26.9287 11.25H26.875C26.2377 11.2501 25.6109 11.0878 25.0538 10.7784C24.4966 10.469 24.0275 10.0227 23.6908 9.48162C23.354 8.94057 23.1607 8.32262 23.129 7.68611C23.0974 7.0496 23.2285 6.41553 23.51 5.84376C22.0446 4.47851 20.2722 3.48598 18.3425 2.95001C18.0288 3.56685 17.5505 4.08485 16.9605 4.44665C16.3706 4.80845 15.692 4.99996 15 4.99996C14.308 4.99996 13.6294 4.80845 13.0395 4.44665C12.4495 4.08485 11.9712 3.56685 11.6575 2.95001C9.72788 3.48562 7.95548 4.47771 6.49 5.84251C6.77381 6.41833 6.90505 7.05737 6.87115 7.69844C6.83725 8.33951 6.63934 8.96114 6.29637 9.50381C5.95341 10.0465 5.47687 10.492 4.91239 10.7978C4.34791 11.1035 3.7144 11.2592 3.0725 11.25C2.4372 13.2789 2.32752 15.4359 2.75375 17.5188C3.49624 17.4451 4.24385 17.5945 4.90093 17.9481C5.55801 18.3016 6.09469 18.8431 6.44231 19.5033C6.78994 20.1635 6.93271 20.9125 6.85236 21.6543C6.772 22.3961 6.47218 23.097 5.99125 23.6675C7.48687 25.2229 9.35973 26.3645 11.4275 26.9813C11.6699 26.2243 12.1466 25.5638 12.7887 25.0953C13.4308 24.6267 14.2051 24.3742 15 24.3742C15.7949 24.3742 16.5692 24.6267 17.2113 25.0953C17.8534 25.5638 18.3301 26.2243 18.5725 26.9813V26.9813Z" stroke="#E8E8E8" stroke-linejoin="round"/>
<path d="M15 19.375C14.4255 19.375 13.8566 19.2618 13.3258 19.042C12.795 18.8221 12.3127 18.4998 11.9064 18.0936C11.5002 17.6873 11.1779 17.205 10.958 16.6742C10.7382 16.1434 10.625 15.5745 10.625 15C10.625 14.4255 10.7382 13.8566 10.958 13.3258C11.1779 12.795 11.5002 12.3127 11.9064 11.9064C12.3127 11.5002 12.795 11.1779 13.3258 10.958C13.8566 10.7382 14.4255 10.625 15 10.625C16.1603 10.625 17.2731 11.0859 18.0936 11.9064C18.9141 12.7269 19.375 13.8397 19.375 15C19.375 16.1603 18.9141 17.2731 18.0936 18.0936C17.2731 18.9141 16.1603 19.375 15 19.375V19.375Z" stroke="#E8E8E8" stroke-linejoin="round"/>
</svg>
