<svg width="24" height="24" viewBox="0 0 24 24" fill="none" xmlns="http://www.w3.org/2000/svg">
<g clip-path="url(#clip0_17_52)">
<path d="M8.67332 18.0998L9.21557 20.6776L15.2842 20.6777L15.8265 18.0998L8.67332 18.0998Z" fill="#C4C8F5"/>
<path d="M4.91376 12.7748L4.91376 18.1004L7.71782 16.6512L7.71782 9.68488L4.91376 12.7748Z" fill="#C4C8F5"/>
<path d="M19.586 18.1004L19.586 12.7748L16.7818 9.68467L16.7818 16.651L19.586 18.1004Z" fill="#A7ADF0"/>
<path d="M10.7323 21.4509H9.18555V23.3101H10.7323V21.4509Z" fill="#FFB655"/>
<path d="M13.7676 23.3103H15.3143V21.4511H13.7676V23.3103Z" fill="#FF9811"/>
<path d="M11.4357 21.4511V24.192H12.9824V21.4511H11.4357Z" fill="#FFB655"/>
<path d="M12.5685 0.596584L12.2499 0.452735L12.2499 4.29092C13.3179 4.29092 14.1833 5.15672 14.1833 6.22434C14.1833 7.29234 13.3179 8.15773 12.2499 8.15776L12.2499 18.0997L16.7818 18.0997L16.7818 7.12221C16.7818 4.31416 15.128 1.75276 12.5685 0.596584Z" fill="#165C92"/>
<path d="M14.1831 6.22437C14.1831 5.15675 13.3177 4.29097 12.2497 4.29095L12.2497 8.15778C13.3177 8.15778 14.1831 7.29237 14.1831 6.22437Z" fill="#96C8EF"/>
<path d="M12.2498 8.15777C11.1822 8.15777 10.3164 7.29238 10.3164 6.22435C10.3164 5.15673 11.1822 4.29093 12.2498 4.29093L12.2498 0.452748L11.9316 0.596598C11.1416 0.95309 10.4293 1.44613 9.81452 2.06096C8.46267 3.4128 7.71792 5.21008 7.71795 7.12184L7.71792 18.0997L12.2498 18.0997L12.2498 8.15777Z" fill="#1E81CE"/>
<path d="M10.3162 6.22435C10.3162 7.29235 11.182 8.15777 12.2496 8.15777L12.2496 4.29094C11.182 4.29094 10.3162 5.15674 10.3162 6.22435Z" fill="#D1E7F8"/>
</g>
<defs>
<clipPath id="clip0_17_52">
<rect width="23.9984" height="24" fill="white"/>
</clipPath>
</defs>
</svg>
