<svg width="100%" height="100%" viewBox="0 0 30 31" fill="none" xmlns="http://www.w3.org/2000/svg">
<path d="M6.25 1.58333H23.75C24.0815 1.58333 24.3995 1.71502 24.6339 1.94944C24.8683 2.18387 25 2.50181 25 2.83333V27.8333C25 28.1648 24.8683 28.4828 24.6339 28.7172C24.3995 28.9516 24.0815 29.0833 23.75 29.0833H6.25C5.91848 29.0833 5.60054 28.9516 5.36612 28.7172C5.1317 28.4828 5 28.1648 5 27.8333V2.83333C5 2.50181 5.1317 2.18387 5.36612 1.94944C5.60054 1.71502 5.91848 1.58333 6.25 1.58333Z" stroke="#E8E8E8" stroke-linejoin="round"/>
<path d="M15 24.0833C14.0054 24.0833 13.0516 23.6882 12.3483 22.985C11.6451 22.2817 11.25 21.3279 11.25 20.3333C11.25 19.3388 11.6451 18.3849 12.3483 17.6817C13.0516 16.9784 14.0054 16.5833 15 16.5833C15.9946 16.5833 16.9484 16.9784 17.6517 17.6817C18.3549 18.3849 18.75 19.3388 18.75 20.3333C18.75 21.3279 18.3549 22.2817 17.6517 22.985C16.9484 23.6882 15.9946 24.0833 15 24.0833V24.0833Z" stroke="#E8E8E8" stroke-linejoin="round"/>
<path d="M15 11.5833C14.337 11.5833 13.7011 11.3199 13.2322 10.8511C12.7634 10.3823 12.5 9.74637 12.5 9.08333C12.5 8.42029 12.7634 7.7844 13.2322 7.31556C13.7011 6.84672 14.337 6.58333 15 6.58333C15.663 6.58333 16.2989 6.84672 16.7678 7.31556C17.2366 7.7844 17.5 8.42029 17.5 9.08333C17.5 9.74637 17.2366 10.3823 16.7678 10.8511C16.2989 11.3199 15.663 11.5833 15 11.5833Z" stroke="#E8E8E8" stroke-linejoin="round"/>
</svg>
