<svg width="100%" height="100%" viewBox="0 0 30 31" fill="none" xmlns="http://www.w3.org/2000/svg">
<path d="M2.5 7.54166V24.4167C2.5 26.4879 8.09625 28.1667 15 28.1667C21.9037 28.1667 27.5 26.4879 27.5 24.4167V7.54166" stroke="#E8E8E8" stroke-linecap="round" stroke-linejoin="round"/>
<path d="M2.5 18.7917C2.5 20.8629 8.09625 22.5417 15 22.5417C21.9037 22.5417 27.5 20.8629 27.5 18.7917" stroke="#E8E8E8" stroke-linecap="round" stroke-linejoin="round"/>
<path d="M2.5 13.1667C2.5 15.2379 8.09625 16.9167 15 16.9167C21.9037 16.9167 27.5 15.2379 27.5 13.1667" stroke="#E8E8E8" stroke-linecap="round" stroke-linejoin="round"/>
<path d="M15 10.6667C8.09625 10.6667 2.5 8.98791 2.5 6.91666C2.5 4.84541 8.09625 3.16666 15 3.16666C21.9037 3.16666 27.5 4.84541 27.5 6.91666C27.5 8.98791 21.9037 10.6667 15 10.6667Z" stroke="#E8E8E8" stroke-linecap="round" stroke-linejoin="round"/>
</svg>
